<svg width="73" height="72" viewBox="0 0 73 72" fill="none" xmlns="http://www.w3.org/2000/svg">
<path d="M31.4763 46.1477C31.3448 46.1825 31.2214 46.2428 31.1132 46.3253C31.005 46.4078 30.9141 46.5109 30.8458 46.6285C30.7774 46.7462 30.733 46.8762 30.7149 47.011C30.6969 47.1459 30.7056 47.283 30.7406 47.4145C31.0208 48.4307 30.9582 49.5109 30.5625 50.488C30.1667 51.465 29.4598 52.2843 28.5513 52.819C28.3565 52.9313 28.2057 53.1067 28.1238 53.3162C28.0447 53.5174 28.0302 53.7382 28.0822 53.9481C28.1343 54.1579 28.2503 54.3463 28.4142 54.4872C28.5781 54.6282 28.7819 54.7146 28.9971 54.7346C29.2124 54.7546 29.4285 54.7071 29.6156 54.5987C30.9085 53.8321 31.914 52.6622 32.4776 51.2687C33.0464 49.8753 33.1397 48.3331 32.7431 46.8812C32.6715 46.6173 32.4984 46.3924 32.2616 46.2557C32.1444 46.1855 32.0142 46.1398 31.8788 46.1212C31.7435 46.1026 31.6081 46.1117 31.4763 46.1477Z" fill="white"/>
<path d="M24.1206 68.4612C26.028 69.4198 28.1627 69.834 30.2901 69.6582C33.091 69.4425 35.7759 68.4485 38.0419 66.7883C40.308 65.1281 42.0651 62.8678 43.1151 60.2622L47.3001 49.937C48.3618 47.3401 48.6767 44.4982 48.2091 41.732C47.7416 38.9657 46.5103 36.3851 44.6541 34.2815C43.3572 32.796 41.7033 31.6653 39.8484 30.9961C37.9935 30.3269 35.9987 30.1412 34.0521 30.4565C32.1356 30.7505 30.325 31.5264 28.7903 32.7113C27.2555 33.8963 26.0467 35.4515 25.2771 37.2312L25.1579 37.4945C24.1428 39.9745 23.9712 42.7194 24.6696 45.3065C24.8008 45.7792 24.7722 46.2821 24.5883 46.7369C24.4044 47.1918 24.0755 47.5732 23.6526 47.822C21.3587 49.1744 19.5758 51.2468 18.5811 53.717L18.4641 54.0005C17.7662 55.8166 17.5425 57.7807 17.8142 59.7073C18.0858 61.6339 18.8438 63.4595 20.0166 65.012C21.0968 66.4661 22.5023 67.6474 24.1206 68.4612ZM28.7466 48.4182C29.3009 47.057 29.3957 45.552 29.0166 44.132L28.9874 44.1387C28.5499 42.5283 28.6446 40.8196 29.2574 39.2675L29.3654 39.0425C29.8246 37.948 30.559 36.9908 31.4973 36.2638C32.4356 35.5368 33.5458 35.0648 34.7204 34.8935C35.9178 34.6973 37.1455 34.8099 38.2872 35.2205C39.429 35.6312 40.4472 36.3263 41.2454 37.2402C42.5505 38.7188 43.4161 40.5328 43.7446 42.4775C44.073 44.4221 43.851 46.4198 43.1039 48.245L38.9189 58.568C38.1817 60.3971 36.9488 61.9842 35.3588 63.1509C33.7689 64.3175 31.8849 65.0174 29.9189 65.1717C28.7126 65.269 27.5014 65.0578 26.3992 64.5579C25.2971 64.058 24.3403 63.2859 23.6189 62.3142C22.9069 61.3961 22.4406 60.3117 22.2638 59.1634C22.0871 58.0151 22.2057 56.8407 22.6086 55.751L22.7324 55.454C23.3624 53.8767 24.4964 52.5515 25.9589 51.6852C27.2189 50.927 28.1954 49.7817 28.7489 48.4182M56.4239 18.3155C56.3571 18.1682 56.2562 18.0391 56.1293 17.9389C56.0025 17.8387 55.8535 17.7703 55.6949 17.7395C55.4264 17.6874 55.1481 17.7415 54.9186 17.8902C54.8046 17.9645 54.7064 18.0606 54.6295 18.173C54.5527 18.2853 54.4988 18.4117 54.4709 18.545C54.1559 20.0367 54.3359 21.542 54.9749 22.91C55.6108 24.2743 56.6804 25.3898 58.0169 26.0825C58.2597 26.2105 58.5435 26.2367 58.8058 26.1555C59.068 26.0743 59.2872 25.8922 59.4152 25.6493C59.5432 25.4065 59.5695 25.1227 59.4883 24.8604C59.4071 24.5982 59.225 24.379 58.9821 24.251C58.0473 23.7642 57.2984 22.9836 56.8508 22.0294C56.4031 21.0752 56.2816 20.0003 56.5049 18.9702C56.5439 18.7488 56.5157 18.5207 56.4239 18.3155Z" fill="white"/>
<path d="M58.2943 41.2584H58.58C60.5027 41.2618 62.3962 40.7877 64.0903 39.8785C65.7845 38.9694 67.2264 37.6537 68.2865 36.0496C69.3713 34.4358 70.0272 32.5722 70.1925 30.6347C70.3579 28.6972 70.0271 26.7495 69.2315 24.9752L69.1235 24.7502C67.9952 22.3227 66.097 20.3359 63.7235 19.0982C63.2877 18.8705 62.9384 18.5064 62.7292 18.0614C62.5199 17.6165 62.4622 17.1153 62.5647 16.6344C63.1198 14.0136 62.798 11.2829 61.649 8.8629L61.5365 8.6379C60.6747 6.89357 59.3828 5.39754 57.7825 4.29095C56.1823 3.18435 54.3265 2.50368 52.3902 2.31315C50.4305 2.10503 48.45 2.39921 46.6353 3.16798C44.8207 3.93675 43.2316 5.1548 42.0177 6.7074C40.2782 8.91195 39.1891 11.5585 38.873 14.3489C38.557 17.1392 39.0266 19.9624 40.229 22.5002L44.9787 32.5801C46.1674 35.1246 48.0441 37.2858 50.3968 38.8194C52.7495 40.353 55.4865 41.1978 58.2943 41.2584ZM48.0522 7.4679C49.0275 6.99644 50.0965 6.75109 51.1797 6.75015C52.5092 6.74609 53.8129 7.11723 54.9408 7.82092C56.0688 8.52461 56.9753 9.5323 57.5562 10.7282L57.581 10.7822C58.3105 12.3146 58.516 14.0444 58.166 15.7052C57.8548 17.1443 58.0259 18.6458 58.6529 19.978C59.28 21.3102 60.3281 22.3989 61.6355 23.0761C63.1839 23.8942 64.4134 25.2076 65.1275 26.8067C65.6209 27.8864 65.8267 29.0753 65.7249 30.258C65.6232 31.4407 65.2175 32.577 64.547 33.5567C63.8747 34.5633 62.9594 35.3842 61.8857 35.9435C60.8121 36.5027 59.6148 36.7822 58.4045 36.7562C56.4317 36.7142 54.51 36.1211 52.8567 35.0439C51.2034 33.9668 49.8844 32.4485 49.049 30.6609L44.3015 20.5831C43.4567 18.8002 43.1264 16.8167 43.3478 14.8562C43.5692 12.8956 44.3336 11.0358 45.5547 9.48615C46.223 8.63115 47.0757 7.94265 48.0522 7.4679ZM21.158 15.7862C21.2723 15.6737 21.4108 15.5887 21.5628 15.5377C21.7148 15.4866 21.8765 15.4708 22.0355 15.4914C22.31 15.5274 22.5552 15.6714 22.706 15.9009C22.8722 16.119 22.945 16.3941 22.9085 16.6659C22.7058 18.1554 22.0197 19.5372 20.9555 20.5989C19.8938 21.6631 18.512 22.3492 17.0225 22.5519C16.8854 22.5752 16.7451 22.5707 16.6098 22.5387C16.4745 22.5067 16.347 22.4478 16.2349 22.3655C16.1228 22.2833 16.0284 22.1793 15.9573 22.0598C15.8862 21.9403 15.8398 21.8078 15.821 21.67C15.8021 21.5323 15.8111 21.3921 15.8475 21.2579C15.8839 21.1237 15.9469 20.9982 16.0327 20.8889C16.1186 20.7795 16.2255 20.6885 16.3472 20.6213C16.469 20.5541 16.603 20.512 16.7412 20.4977C17.7859 20.3593 18.7559 19.8806 19.501 19.1354C20.2462 18.3903 20.7249 17.4203 20.8632 16.3757C20.8962 16.1528 20.9995 15.9462 21.158 15.7862Z" fill="white"/>
<path d="M10.7432 37.3794C13.4068 38.275 16.2682 38.4059 19.0025 37.7572C21.7368 37.1085 24.2344 35.7063 26.2119 33.7097L34.0869 25.8347C36.0805 23.8556 37.4806 21.3583 38.1287 18.625C38.7768 15.8917 38.6472 13.0316 37.7544 10.3682C37.1347 8.49413 36.0482 6.80863 34.5973 5.47032C33.1464 4.13201 31.3788 3.18491 29.4609 2.71816C27.5675 2.24529 25.5849 2.26217 23.6998 2.7672C21.8147 3.27223 20.0891 4.24879 18.6857 5.60491L18.4832 5.81416C16.6185 7.69565 15.4144 10.1313 15.0519 12.7554C14.9855 13.2415 14.762 13.6925 14.4155 14.0397C14.0691 14.387 13.6186 14.6116 13.1327 14.6792C10.4853 15.0376 8.02994 16.2586 6.14644 18.1532L5.95294 18.3534C4.60313 19.7544 3.63246 21.4762 3.13251 23.3563C2.63256 25.2365 2.6198 27.213 3.09544 29.0994C3.56226 31.0157 4.50959 32.7815 5.84805 34.2302C7.18651 35.6789 8.86973 36.7627 10.7432 37.3794ZM19.5069 13.3832C19.7409 11.6979 20.5194 10.1387 21.7232 8.93716L21.8357 8.81791C22.6867 7.99162 23.7361 7.39837 24.8829 7.09533C26.0296 6.79228 27.2351 6.78964 28.3832 7.08766C29.5611 7.37687 30.6462 7.96079 31.5365 8.78457C32.4268 9.60834 33.0931 10.6449 33.4727 11.7969C34.0993 13.6677 34.1902 15.6764 33.7349 17.5961C33.2796 19.5158 32.2964 21.2698 30.8964 22.6599L23.0214 30.5349C21.6313 31.9341 19.8775 32.9166 17.9583 33.3715C16.0391 33.8263 14.0309 33.7354 12.1607 33.1089C11.0093 32.7299 9.97353 32.0637 9.15114 31.1732C8.32874 30.2827 7.74686 29.1972 7.46044 28.0194C7.16197 26.8422 7.17601 25.6076 7.50118 24.4375C7.82636 23.2674 8.45139 22.2025 9.31444 21.3482C10.5075 20.1384 12.0694 19.3602 13.7537 19.1364C15.2108 18.9408 16.5632 18.2717 17.6027 17.2322C18.6423 16.1926 19.3113 14.8402 19.5069 13.3832Z" fill="white"/>
</svg>
