<svg width="220" height="74" viewBox="0 0 220 74" fill="none" xmlns="http://www.w3.org/2000/svg">
<rect width="220" height="74" rx="12" fill="white"/>
<path d="M42.4163 50.8C40.783 52.3833 38.9996 52.1333 37.283 51.3833C35.4663 50.6167 33.7996 50.5833 31.883 51.3833C29.483 52.4167 28.2163 52.1167 26.783 50.8C18.6496 42.4167 19.8496 29.65 29.083 29.1833C31.333 29.3 32.8996 30.4167 34.2163 30.5167C36.183 30.1167 38.0663 28.9667 40.1663 29.1167C42.683 29.3167 44.583 30.3167 45.833 32.1167C40.633 35.2333 41.8663 42.0833 46.633 44C45.683 46.5 44.4496 48.9833 42.3996 50.8167L42.4163 50.8ZM34.0496 29.0833C33.7996 25.3667 36.8163 22.3 40.283 22C40.7663 26.3 36.383 29.5 34.0496 29.0833Z" fill="black"/>
<path d="M63.78 18.05C63.6 17.7033 63.35 17.4433 63.03 17.27C62.71 17.09 62.34 17 61.92 17C61.46 17 61.05 17.1033 60.69 17.31C60.33 17.5167 60.0467 17.81 59.84 18.19C59.64 18.57 59.54 19.01 59.54 19.51C59.54 20.01 59.64 20.4533 59.84 20.84C60.0467 21.22 60.33 21.5133 60.69 21.72C61.05 21.9267 61.46 22.03 61.92 22.03C62.54 22.03 63.0433 21.8567 63.43 21.51C63.8167 21.1633 64.0533 20.6933 64.14 20.1H61.53V19.19H65.36V20.08C65.2867 20.62 65.0933 21.1167 64.78 21.57C64.4733 22.0233 64.07 22.3867 63.57 22.66C63.0767 22.9267 62.5267 23.06 61.92 23.06C61.2667 23.06 60.67 22.91 60.13 22.61C59.59 22.3033 59.16 21.88 58.84 21.34C58.5267 20.8 58.37 20.19 58.37 19.51C58.37 18.83 58.5267 18.22 58.84 17.68C59.16 17.14 59.59 16.72 60.13 16.42C60.6767 16.1133 61.2733 15.96 61.92 15.96C62.66 15.96 63.3167 16.1433 63.89 16.51C64.47 16.87 64.89 17.3833 65.15 18.05H63.78ZM67.6244 16.97V19.01H70.0244V19.94H67.6244V22.07H70.3244V23H66.4844V16.04H70.3244V16.97H67.6244ZM76.2185 16.05V16.98H74.3685V23H73.2285V16.98H71.3685V16.05H76.2185ZM81.1107 16.05V23H79.9707V16.05H81.1107ZM87.0974 16.05V16.98H85.2474V23H84.1074V16.98H82.2474V16.05H87.0974ZM91.422 23.07C90.7753 23.07 90.1786 22.92 89.632 22.62C89.092 22.3133 88.662 21.89 88.342 21.35C88.0286 20.8033 87.872 20.19 87.872 19.51C87.872 18.83 88.0286 18.22 88.342 17.68C88.662 17.14 89.092 16.72 89.632 16.42C90.1786 16.1133 90.7753 15.96 91.422 15.96C92.0753 15.96 92.672 16.1133 93.212 16.42C93.7586 16.72 94.1886 17.14 94.502 17.68C94.8153 18.22 94.972 18.83 94.972 19.51C94.972 20.19 94.8153 20.8033 94.502 21.35C94.1886 21.89 93.7586 22.3133 93.212 22.62C92.672 22.92 92.0753 23.07 91.422 23.07ZM91.422 22.08C91.882 22.08 92.292 21.9767 92.652 21.77C93.012 21.5567 93.292 21.2567 93.492 20.87C93.6986 20.4767 93.802 20.0233 93.802 19.51C93.802 18.9967 93.6986 18.5467 93.492 18.16C93.292 17.7733 93.012 17.4767 92.652 17.27C92.292 17.0633 91.882 16.96 91.422 16.96C90.962 16.96 90.552 17.0633 90.192 17.27C89.832 17.4767 89.5486 17.7733 89.342 18.16C89.142 18.5467 89.042 18.9967 89.042 19.51C89.042 20.0233 89.142 20.4767 89.342 20.87C89.5486 21.2567 89.832 21.5567 90.192 21.77C90.552 21.9767 90.962 22.08 91.422 22.08ZM101.804 23H100.664L97.2338 17.81V23H96.0938V16.04H97.2338L100.664 21.22V16.04H101.804V23Z" fill="#050505"/>
<path d="M69.928 48.808H63.256L62.152 52H58.624L64.648 35.224H68.56L74.584 52H71.032L69.928 48.808ZM69.016 46.12L66.592 39.112L64.168 46.12H69.016ZM80.1957 40.624C80.6277 40.016 81.2197 39.512 81.9717 39.112C82.7397 38.696 83.6117 38.488 84.5877 38.488C85.7237 38.488 86.7477 38.768 87.6597 39.328C88.5877 39.888 89.3157 40.688 89.8437 41.728C90.3877 42.752 90.6597 43.944 90.6597 45.304C90.6597 46.664 90.3877 47.872 89.8437 48.928C89.3157 49.968 88.5877 50.776 87.6597 51.352C86.7477 51.928 85.7237 52.216 84.5877 52.216C83.6117 52.216 82.7477 52.016 81.9957 51.616C81.2597 51.216 80.6597 50.712 80.1957 50.104V58.336H76.8357V38.704H80.1957V40.624ZM87.2277 45.304C87.2277 44.504 87.0597 43.816 86.7237 43.24C86.4037 42.648 85.9717 42.2 85.4277 41.896C84.8997 41.592 84.3237 41.44 83.6997 41.44C83.0917 41.44 82.5157 41.6 81.9717 41.92C81.4437 42.224 81.0117 42.672 80.6757 43.264C80.3557 43.856 80.1957 44.552 80.1957 45.352C80.1957 46.152 80.3557 46.848 80.6757 47.44C81.0117 48.032 81.4437 48.488 81.9717 48.808C82.5157 49.112 83.0917 49.264 83.6997 49.264C84.3237 49.264 84.8997 49.104 85.4277 48.784C85.9717 48.464 86.4037 48.008 86.7237 47.416C87.0597 46.824 87.2277 46.12 87.2277 45.304ZM96.4613 40.624C96.8933 40.016 97.4853 39.512 98.2373 39.112C99.0053 38.696 99.8773 38.488 100.853 38.488C101.989 38.488 103.013 38.768 103.925 39.328C104.853 39.888 105.581 40.688 106.109 41.728C106.653 42.752 106.925 43.944 106.925 45.304C106.925 46.664 106.653 47.872 106.109 48.928C105.581 49.968 104.853 50.776 103.925 51.352C103.013 51.928 101.989 52.216 100.853 52.216C99.8773 52.216 99.0133 52.016 98.2613 51.616C97.5253 51.216 96.9253 50.712 96.4613 50.104V58.336H93.1013V38.704H96.4613V40.624ZM103.493 45.304C103.493 44.504 103.325 43.816 102.989 43.24C102.669 42.648 102.237 42.2 101.693 41.896C101.165 41.592 100.589 41.44 99.9653 41.44C99.3573 41.44 98.7813 41.6 98.2373 41.92C97.7093 42.224 97.2773 42.672 96.9413 43.264C96.6213 43.856 96.4613 44.552 96.4613 45.352C96.4613 46.152 96.6213 46.848 96.9413 47.44C97.2773 48.032 97.7093 48.488 98.2373 48.808C98.7813 49.112 99.3573 49.264 99.9653 49.264C100.589 49.264 101.165 49.104 101.693 48.784C102.237 48.464 102.669 48.008 102.989 47.416C103.325 46.824 103.493 46.12 103.493 45.304ZM112.727 34.24V52H109.367V34.24H112.727ZM128.407 45.064C128.407 45.544 128.375 45.976 128.311 46.36H118.591C118.671 47.32 119.007 48.072 119.599 48.616C120.191 49.16 120.919 49.432 121.783 49.432C123.031 49.432 123.919 48.896 124.447 47.824H128.071C127.687 49.104 126.951 50.16 125.863 50.992C124.775 51.808 123.439 52.216 121.855 52.216C120.575 52.216 119.423 51.936 118.399 51.376C117.391 50.8 116.599 49.992 116.023 48.952C115.463 47.912 115.183 46.712 115.183 45.352C115.183 43.976 115.463 42.768 116.023 41.728C116.583 40.688 117.367 39.888 118.375 39.328C119.383 38.768 120.543 38.488 121.855 38.488C123.119 38.488 124.247 38.76 125.239 39.304C126.247 39.848 127.023 40.624 127.567 41.632C128.127 42.624 128.407 43.768 128.407 45.064ZM124.927 44.104C124.911 43.24 124.599 42.552 123.991 42.04C123.383 41.512 122.639 41.248 121.759 41.248C120.927 41.248 120.223 41.504 119.647 42.016C119.087 42.512 118.743 43.208 118.615 44.104H124.927ZM142.362 52.168C141.194 52.168 140.138 51.968 139.194 51.568C138.266 51.168 137.53 50.592 136.986 49.84C136.442 49.088 136.162 48.2 136.146 47.176H139.746C139.794 47.864 140.034 48.408 140.466 48.808C140.914 49.208 141.522 49.408 142.29 49.408C143.074 49.408 143.69 49.224 144.138 48.856C144.586 48.472 144.81 47.976 144.81 47.368C144.81 46.872 144.658 46.464 144.354 46.144C144.05 45.824 143.666 45.576 143.202 45.4C142.754 45.208 142.13 45 141.33 44.776C140.242 44.456 139.354 44.144 138.666 43.84C137.994 43.52 137.41 43.048 136.914 42.424C136.434 41.784 136.194 40.936 136.194 39.88C136.194 38.888 136.442 38.024 136.938 37.288C137.434 36.552 138.13 35.992 139.026 35.608C139.922 35.208 140.946 35.008 142.098 35.008C143.826 35.008 145.226 35.432 146.298 36.28C147.386 37.112 147.986 38.28 148.098 39.784H144.402C144.37 39.208 144.122 38.736 143.658 38.368C143.21 37.984 142.61 37.792 141.858 37.792C141.202 37.792 140.674 37.96 140.274 38.296C139.89 38.632 139.698 39.12 139.698 39.76C139.698 40.208 139.842 40.584 140.13 40.888C140.434 41.176 140.802 41.416 141.234 41.608C141.682 41.784 142.306 41.992 143.106 42.232C144.194 42.552 145.082 42.872 145.77 43.192C146.458 43.512 147.05 43.992 147.546 44.632C148.042 45.272 148.29 46.112 148.29 47.152C148.29 48.048 148.058 48.88 147.594 49.648C147.13 50.416 146.45 51.032 145.554 51.496C144.658 51.944 143.594 52.168 142.362 52.168ZM155.115 41.464V47.896C155.115 48.344 155.219 48.672 155.427 48.88C155.651 49.072 156.019 49.168 156.531 49.168H158.091V52H155.979C153.147 52 151.731 50.624 151.731 47.872V41.464H150.147V38.704H151.731V35.416H155.115V38.704H158.091V41.464H155.115ZM166.412 52.216C165.132 52.216 163.98 51.936 162.956 51.376C161.932 50.8 161.124 49.992 160.532 48.952C159.956 47.912 159.668 46.712 159.668 45.352C159.668 43.992 159.964 42.792 160.556 41.752C161.164 40.712 161.988 39.912 163.028 39.352C164.068 38.776 165.228 38.488 166.508 38.488C167.788 38.488 168.948 38.776 169.988 39.352C171.028 39.912 171.844 40.712 172.436 41.752C173.044 42.792 173.348 43.992 173.348 45.352C173.348 46.712 173.036 47.912 172.412 48.952C171.804 49.992 170.972 50.8 169.916 51.376C168.876 51.936 167.708 52.216 166.412 52.216ZM166.412 49.288C167.02 49.288 167.588 49.144 168.116 48.856C168.66 48.552 169.092 48.104 169.412 47.512C169.732 46.92 169.892 46.2 169.892 45.352C169.892 44.088 169.556 43.12 168.884 42.448C168.228 41.76 167.42 41.416 166.46 41.416C165.5 41.416 164.692 41.76 164.036 42.448C163.396 43.12 163.076 44.088 163.076 45.352C163.076 46.616 163.388 47.592 164.012 48.28C164.652 48.952 165.452 49.288 166.412 49.288ZM179.172 40.768C179.604 40.064 180.164 39.512 180.852 39.112C181.556 38.712 182.356 38.512 183.252 38.512V42.04H182.364C181.308 42.04 180.508 42.288 179.964 42.784C179.436 43.28 179.172 44.144 179.172 45.376V52H175.812V38.704H179.172V40.768ZM197.875 45.064C197.875 45.544 197.843 45.976 197.779 46.36H188.059C188.139 47.32 188.475 48.072 189.067 48.616C189.659 49.16 190.387 49.432 191.251 49.432C192.499 49.432 193.387 48.896 193.915 47.824H197.539C197.155 49.104 196.419 50.16 195.331 50.992C194.243 51.808 192.907 52.216 191.323 52.216C190.043 52.216 188.891 51.936 187.867 51.376C186.859 50.8 186.067 49.992 185.491 48.952C184.931 47.912 184.651 46.712 184.651 45.352C184.651 43.976 184.931 42.768 185.491 41.728C186.051 40.688 186.835 39.888 187.843 39.328C188.851 38.768 190.011 38.488 191.323 38.488C192.587 38.488 193.715 38.76 194.707 39.304C195.715 39.848 196.491 40.624 197.035 41.632C197.595 42.624 197.875 43.768 197.875 45.064ZM194.395 44.104C194.379 43.24 194.067 42.552 193.459 42.04C192.851 41.512 192.107 41.248 191.227 41.248C190.395 41.248 189.691 41.504 189.115 42.016C188.555 42.512 188.211 43.208 188.083 44.104H194.395Z" fill="#050505"/>
</svg>
