<svg width="220" height="74" viewBox="0 0 220 74" fill="none" xmlns="http://www.w3.org/2000/svg">
<rect width="220" height="74" rx="12" fill="white"/>
<g clip-path="url(#clip0_1_385)">
<path d="M30.8975 36.0693L14.1494 53.6163C14.3375 54.2829 14.6755 54.8976 15.1375 55.4134C15.5996 55.9293 16.1735 56.3327 16.8153 56.5928C17.4572 56.8529 18.15 56.9628 18.8409 56.9142C19.5317 56.8655 20.2023 56.6594 20.8013 56.3119L39.6461 45.5792L30.8975 36.0693Z" fill="#EA4335"/>
<path d="M47.8337 33.0866L39.6846 28.4189L30.5117 36.4684L39.7219 45.5539L47.809 40.9363C48.5254 40.5611 49.1255 39.9971 49.5441 39.3052C49.9628 38.6133 50.1842 37.8201 50.1842 37.0114C50.1842 36.2027 49.9628 35.4094 49.5441 34.7176C49.1255 34.0257 48.5254 33.4616 47.809 33.0865L47.8337 33.0866Z" fill="#FBBC04"/>
<path d="M14.1498 20.3197C14.0486 20.694 13.9982 21.0801 14 21.4678V52.4681C14.001 52.8557 14.0513 53.2415 14.1498 53.6164L31.4721 36.5187L14.1498 20.3197Z" fill="#4285F4"/>
<path d="M31.0223 36.9681L39.6835 28.4192L20.8638 17.6365C20.1557 17.2218 19.3503 17.0022 18.5298 17C16.4934 16.9961 14.7032 18.3476 14.1494 20.3073L31.0223 36.9681Z" fill="#34A853"/>
</g>
<path d="M59.9637 18.05C59.7837 17.7033 59.5337 17.4433 59.2137 17.27C58.8937 17.09 58.5237 17 58.1037 17C57.6437 17 57.2337 17.1033 56.8737 17.31C56.5137 17.5167 56.2304 17.81 56.0237 18.19C55.8237 18.57 55.7237 19.01 55.7237 19.51C55.7237 20.01 55.8237 20.4533 56.0237 20.84C56.2304 21.22 56.5137 21.5133 56.8737 21.72C57.2337 21.9267 57.6437 22.03 58.1037 22.03C58.7237 22.03 59.227 21.8567 59.6137 21.51C60.0004 21.1633 60.237 20.6933 60.3237 20.1H57.7137V19.19H61.5437V20.08C61.4704 20.62 61.277 21.1167 60.9637 21.57C60.657 22.0233 60.2537 22.3867 59.7537 22.66C59.2604 22.9267 58.7104 23.06 58.1037 23.06C57.4504 23.06 56.8537 22.91 56.3137 22.61C55.7737 22.3033 55.3437 21.88 55.0237 21.34C54.7104 20.8 54.5537 20.19 54.5537 19.51C54.5537 18.83 54.7104 18.22 55.0237 17.68C55.3437 17.14 55.7737 16.72 56.3137 16.42C56.8604 16.1133 57.457 15.96 58.1037 15.96C58.8437 15.96 59.5004 16.1433 60.0737 16.51C60.6537 16.87 61.0737 17.3833 61.3337 18.05H59.9637ZM63.8081 16.97V19.01H66.2081V19.94H63.8081V22.07H66.5081V23H62.6681V16.04H66.5081V16.97H63.8081ZM72.4022 16.05V16.98H70.5522V23H69.4122V16.98H67.5522V16.05H72.4022ZM77.2944 16.05V23H76.1544V16.05H77.2944ZM83.2811 16.05V16.98H81.4311V23H80.2911V16.98H78.4311V16.05H83.2811ZM87.6057 23.07C86.959 23.07 86.3623 22.92 85.8157 22.62C85.2757 22.3133 84.8457 21.89 84.5257 21.35C84.2123 20.8033 84.0557 20.19 84.0557 19.51C84.0557 18.83 84.2123 18.22 84.5257 17.68C84.8457 17.14 85.2757 16.72 85.8157 16.42C86.3623 16.1133 86.959 15.96 87.6057 15.96C88.259 15.96 88.8557 16.1133 89.3957 16.42C89.9423 16.72 90.3723 17.14 90.6857 17.68C90.999 18.22 91.1557 18.83 91.1557 19.51C91.1557 20.19 90.999 20.8033 90.6857 21.35C90.3723 21.89 89.9423 22.3133 89.3957 22.62C88.8557 22.92 88.259 23.07 87.6057 23.07ZM87.6057 22.08C88.0657 22.08 88.4757 21.9767 88.8357 21.77C89.1957 21.5567 89.4757 21.2567 89.6757 20.87C89.8823 20.4767 89.9857 20.0233 89.9857 19.51C89.9857 18.9967 89.8823 18.5467 89.6757 18.16C89.4757 17.7733 89.1957 17.4767 88.8357 17.27C88.4757 17.0633 88.0657 16.96 87.6057 16.96C87.1457 16.96 86.7357 17.0633 86.3757 17.27C86.0157 17.4767 85.7323 17.7733 85.5257 18.16C85.3257 18.5467 85.2257 18.9967 85.2257 19.51C85.2257 20.0233 85.3257 20.4767 85.5257 20.87C85.7323 21.2567 86.0157 21.5567 86.3757 21.77C86.7357 21.9767 87.1457 22.08 87.6057 22.08ZM97.9875 23H96.8475L93.4175 17.81V23H92.2775V16.04H93.4175L96.8475 21.22V16.04H97.9875V23Z" fill="#050505"/>
<path d="M67.5037 40.288C67.1197 39.584 66.5917 39.048 65.9197 38.68C65.2477 38.312 64.4637 38.128 63.5677 38.128C62.5757 38.128 61.6957 38.352 60.9277 38.8C60.1597 39.248 59.5597 39.888 59.1277 40.72C58.6957 41.552 58.4797 42.512 58.4797 43.6C58.4797 44.72 58.6957 45.696 59.1277 46.528C59.5757 47.36 60.1917 48 60.9757 48.448C61.7597 48.896 62.6717 49.12 63.7117 49.12C64.9917 49.12 66.0397 48.784 66.8557 48.112C67.6717 47.424 68.2077 46.472 68.4637 45.256H62.7037V42.688H71.7757V45.616C71.5517 46.784 71.0717 47.864 70.3357 48.856C69.5997 49.848 68.6477 50.648 67.4797 51.256C66.3277 51.848 65.0317 52.144 63.5917 52.144C61.9757 52.144 60.5117 51.784 59.1997 51.064C57.9037 50.328 56.8797 49.312 56.1277 48.016C55.3917 46.72 55.0237 45.248 55.0237 43.6C55.0237 41.952 55.3917 40.48 56.1277 39.184C56.8797 37.872 57.9037 36.856 59.1997 36.136C60.5117 35.4 61.9677 35.032 63.5677 35.032C65.4557 35.032 67.0957 35.496 68.4877 36.424C69.8797 37.336 70.8397 38.624 71.3677 40.288H67.5037ZM80.1656 52.216C78.8856 52.216 77.7336 51.936 76.7096 51.376C75.6856 50.8 74.8776 49.992 74.2856 48.952C73.7096 47.912 73.4216 46.712 73.4216 45.352C73.4216 43.992 73.7176 42.792 74.3096 41.752C74.9176 40.712 75.7416 39.912 76.7816 39.352C77.8216 38.776 78.9816 38.488 80.2616 38.488C81.5416 38.488 82.7016 38.776 83.7416 39.352C84.7816 39.912 85.5976 40.712 86.1896 41.752C86.7976 42.792 87.1016 43.992 87.1016 45.352C87.1016 46.712 86.7896 47.912 86.1656 48.952C85.5576 49.992 84.7256 50.8 83.6696 51.376C82.6296 51.936 81.4616 52.216 80.1656 52.216ZM80.1656 49.288C80.7736 49.288 81.3416 49.144 81.8696 48.856C82.4136 48.552 82.8456 48.104 83.1656 47.512C83.4856 46.92 83.6456 46.2 83.6456 45.352C83.6456 44.088 83.3096 43.12 82.6376 42.448C81.9816 41.76 81.1736 41.416 80.2136 41.416C79.2536 41.416 78.4456 41.76 77.7896 42.448C77.1496 43.12 76.8296 44.088 76.8296 45.352C76.8296 46.616 77.1416 47.592 77.7656 48.28C78.4056 48.952 79.2056 49.288 80.1656 49.288ZM95.4703 52.216C94.1903 52.216 93.0383 51.936 92.0143 51.376C90.9903 50.8 90.1823 49.992 89.5903 48.952C89.0143 47.912 88.7263 46.712 88.7263 45.352C88.7263 43.992 89.0223 42.792 89.6143 41.752C90.2223 40.712 91.0463 39.912 92.0863 39.352C93.1263 38.776 94.2863 38.488 95.5663 38.488C96.8463 38.488 98.0063 38.776 99.0463 39.352C100.086 39.912 100.902 40.712 101.494 41.752C102.102 42.792 102.406 43.992 102.406 45.352C102.406 46.712 102.094 47.912 101.47 48.952C100.862 49.992 100.03 50.8 98.9743 51.376C97.9343 51.936 96.7663 52.216 95.4703 52.216ZM95.4703 49.288C96.0783 49.288 96.6463 49.144 97.1743 48.856C97.7183 48.552 98.1503 48.104 98.4703 47.512C98.7903 46.92 98.9503 46.2 98.9503 45.352C98.9503 44.088 98.6143 43.12 97.9423 42.448C97.2863 41.76 96.4783 41.416 95.5183 41.416C94.5583 41.416 93.7503 41.76 93.0943 42.448C92.4543 43.12 92.1343 44.088 92.1343 45.352C92.1343 46.616 92.4463 47.592 93.0703 48.28C93.7103 48.952 94.5103 49.288 95.4703 49.288ZM110.079 38.488C111.071 38.488 111.943 38.688 112.695 39.088C113.447 39.472 114.039 39.976 114.471 40.6V38.704H117.855V52.096C117.855 53.328 117.607 54.424 117.111 55.384C116.615 56.36 115.871 57.128 114.879 57.688C113.887 58.264 112.687 58.552 111.279 58.552C109.391 58.552 107.839 58.112 106.623 57.232C105.423 56.352 104.743 55.152 104.583 53.632H107.919C108.095 54.24 108.471 54.72 109.047 55.072C109.639 55.44 110.351 55.624 111.183 55.624C112.159 55.624 112.951 55.328 113.559 54.736C114.167 54.16 114.471 53.28 114.471 52.096V50.032C114.039 50.656 113.439 51.176 112.671 51.592C111.919 52.008 111.055 52.216 110.079 52.216C108.959 52.216 107.935 51.928 107.007 51.352C106.079 50.776 105.343 49.968 104.799 48.928C104.271 47.872 104.007 46.664 104.007 45.304C104.007 43.96 104.271 42.768 104.799 41.728C105.343 40.688 106.071 39.888 106.983 39.328C107.911 38.768 108.943 38.488 110.079 38.488ZM114.471 45.352C114.471 44.536 114.311 43.84 113.991 43.264C113.671 42.672 113.239 42.224 112.695 41.92C112.151 41.6 111.567 41.44 110.943 41.44C110.319 41.44 109.743 41.592 109.215 41.896C108.687 42.2 108.255 42.648 107.919 43.24C107.599 43.816 107.439 44.504 107.439 45.304C107.439 46.104 107.599 46.808 107.919 47.416C108.255 48.008 108.687 48.464 109.215 48.784C109.759 49.104 110.335 49.264 110.943 49.264C111.567 49.264 112.151 49.112 112.695 48.808C113.239 48.488 113.671 48.04 113.991 47.464C114.311 46.872 114.471 46.168 114.471 45.352ZM124.497 34.24V52H121.137V34.24H124.497ZM140.176 45.064C140.176 45.544 140.144 45.976 140.08 46.36H130.36C130.44 47.32 130.776 48.072 131.368 48.616C131.96 49.16 132.688 49.432 133.552 49.432C134.8 49.432 135.688 48.896 136.216 47.824H139.84C139.456 49.104 138.72 50.16 137.632 50.992C136.544 51.808 135.208 52.216 133.624 52.216C132.344 52.216 131.192 51.936 130.168 51.376C129.16 50.8 128.368 49.992 127.792 48.952C127.232 47.912 126.952 46.712 126.952 45.352C126.952 43.976 127.232 42.768 127.792 41.728C128.352 40.688 129.136 39.888 130.144 39.328C131.152 38.768 132.312 38.488 133.624 38.488C134.888 38.488 136.016 38.76 137.008 39.304C138.016 39.848 138.792 40.624 139.336 41.632C139.896 42.624 140.176 43.768 140.176 45.064ZM136.696 44.104C136.68 43.24 136.368 42.552 135.76 42.04C135.152 41.512 134.408 41.248 133.528 41.248C132.696 41.248 131.992 41.504 131.416 42.016C130.856 42.512 130.512 43.208 130.384 44.104H136.696ZM160.564 40.432C160.564 41.328 160.348 42.168 159.916 42.952C159.5 43.736 158.836 44.368 157.924 44.848C157.028 45.328 155.892 45.568 154.516 45.568H151.708V52H148.348V35.248H154.516C155.812 35.248 156.916 35.472 157.828 35.92C158.74 36.368 159.42 36.984 159.868 37.768C160.332 38.552 160.564 39.44 160.564 40.432ZM154.372 42.856C155.3 42.856 155.988 42.648 156.436 42.232C156.884 41.8 157.108 41.2 157.108 40.432C157.108 38.8 156.196 37.984 154.372 37.984H151.708V42.856H154.372ZM166.309 34.24V52H162.949V34.24H166.309ZM168.765 45.304C168.765 43.96 169.029 42.768 169.557 41.728C170.101 40.688 170.829 39.888 171.741 39.328C172.669 38.768 173.701 38.488 174.837 38.488C175.829 38.488 176.693 38.688 177.429 39.088C178.181 39.488 178.781 39.992 179.229 40.6V38.704H182.613V52H179.229V50.056C178.797 50.68 178.197 51.2 177.429 51.616C176.677 52.016 175.805 52.216 174.813 52.216C173.693 52.216 172.669 51.928 171.741 51.352C170.829 50.776 170.101 49.968 169.557 48.928C169.029 47.872 168.765 46.664 168.765 45.304ZM179.229 45.352C179.229 44.536 179.069 43.84 178.749 43.264C178.429 42.672 177.997 42.224 177.453 41.92C176.909 41.6 176.325 41.44 175.701 41.44C175.077 41.44 174.501 41.592 173.973 41.896C173.445 42.2 173.013 42.648 172.677 43.24C172.357 43.816 172.197 44.504 172.197 45.304C172.197 46.104 172.357 46.808 172.677 47.416C173.013 48.008 173.445 48.464 173.973 48.784C174.517 49.104 175.093 49.264 175.701 49.264C176.325 49.264 176.909 49.112 177.453 48.808C177.997 48.488 178.429 48.04 178.749 47.464C179.069 46.872 179.229 46.168 179.229 45.352ZM198.614 38.704L190.382 58.288H186.806L189.686 51.664L184.358 38.704H188.126L191.558 47.992L195.038 38.704H198.614Z" fill="#050505"/>
<defs>
<clipPath id="clip0_1_385">
<rect width="36.1837" height="40" fill="white" transform="translate(14 17)"/>
</clipPath>
</defs>
</svg>
